<svg width="93" height="93" viewBox="0 0 93 93" fill="none" xmlns="http://www.w3.org/2000/svg">
<g opacity="0.8">
<g filter="url(#filter0_f_5528_206674)">
<path d="M5 46.49C5 23.57 23.57 5 46.49 5C69.41 5 87.98 23.58 87.98 46.49C87.98 69.4 69.4 87.98 46.49 87.98C23.58 87.98 5 69.4 5 46.49Z" fill="white"/>
</g>
<path opacity="0.07" d="M27.8703 22.08C27.1003 21.65 26.1302 21.79 25.5002 22.4C25.5002 22.4 24.8102 23.07 23.7802 24.08C23.0302 24.46 22.3103 24.87 21.6203 25.3C20.9403 25.73 20.2802 26.19 19.6702 26.67C16.0602 29.3 13.6602 33.84 12.8302 37.92C12.7102 38.69 12.6403 39.49 12.6203 40.31C12.6003 41.13 12.6303 41.98 12.7103 42.85C12.6003 43.67 12.9802 44.37 13.5602 44.78C14.1402 45.18 14.9303 45.29 15.6503 44.9C15.6503 44.9 16.5403 44.43 17.7603 43.9C27.7903 44.14 26.3602 33.44 28.1802 26.73C28.5702 25.32 28.8303 24.38 28.8303 24.38C29.0803 23.48 28.6803 22.53 27.8703 22.08Z" fill="#AEA290"/>
<path opacity="0.08" d="M47.0904 12.1C45.9204 12.01 44.5704 12.01 45.0204 13.36C45.4704 16.96 52.2204 20.56 46.8204 24.15C44.1204 25.95 40.5204 27.3 39.6004 30.87C39.4404 31.55 39.3904 32.24 39.4104 32.92C39.4904 34.99 40.2704 37.07 42.1304 39.12C42.7004 39.56 43.3404 39.92 44.0104 40.22C46.0204 41.11 48.3504 41.43 50.3204 41.62C51.0304 41.7 51.7504 41.76 52.4804 41.79C53.5704 41.83 54.6604 41.79 55.7104 41.68C56.2304 41.62 56.7504 41.53 57.2404 41.42C59.4404 40.79 62.1404 39.44 61.2404 36.74C60.9004 36.18 60.5404 35.64 60.1504 35.12C59.7604 34.6 59.3604 34.09 58.9504 33.59C58.6204 33.25 58.2104 32.83 57.8104 32.37C57.4204 31.91 57.0404 31.42 56.7904 30.94C56.2904 27.74 59.8804 28.64 61.5204 28.72C62.1904 28.84 62.8504 28.98 63.4904 29.09C65.4004 29.43 67.0904 29.54 67.9904 28.19C70.7404 24.45 69.4504 21.57 66.5504 19.34C66.0704 18.97 65.5404 18.61 64.9704 18.28C59.9004 15.6 54.9504 13.8 49.4204 12.36C48.4704 12.2 47.7104 12.11 47.1304 12.09L47.0904 12.1Z" fill="#C5B6A2"/>
<path opacity="0.08" d="M17.7504 63.37C18.0504 63.93 18.3704 64.49 18.7204 65.04C19.0704 65.59 19.4404 66.14 19.8404 66.67C23.2804 72.33 30.0304 75.03 36.3304 72.78C39.9304 71.43 39.9304 66.48 37.6804 64.68C34.9804 61.98 31.8304 66.93 28.6904 66.48C25.5404 66.03 23.7404 62.43 20.5704 61.02C19.9404 60.84 19.3304 60.81 18.7604 61.02C18.1904 61.23 17.6504 61.66 17.1504 62.4C17.2204 62.71 17.4104 63.04 17.7604 63.36L17.7504 63.37Z" fill="#C5B6A2"/>
<path opacity="0.09" d="M68.9505 38.4398C68.9805 39.5798 69.4005 40.6698 70.3005 41.4098C70.4805 41.5498 70.6804 41.6798 70.9004 41.7798C71.1404 41.8998 71.3805 41.9898 71.6405 42.0698C72.9005 42.4398 74.3605 42.2998 75.5805 41.7398C75.7705 41.6498 75.9504 41.5398 76.1204 41.4098C76.2904 41.2798 76.4505 41.1498 76.6005 40.9998C78.1005 39.4598 78.0905 36.6898 76.8905 34.9898C76.0705 33.8198 74.6605 33.2298 73.2905 33.3298C73.0105 33.3498 72.7404 33.3898 72.4704 33.4698C72.1804 33.5198 71.9105 33.5998 71.6705 33.6898C71.4305 33.7898 71.2105 33.9098 71.0105 34.0498C69.7005 34.9598 68.9005 36.7598 68.9505 38.4498V38.4398Z" fill="#AEA290"/>
<path opacity="0.07" d="M54.6203 68.17C62.4203 66.49 65.1203 60.64 66.1303 53.51C66.5503 53.05 67.0003 52.6001 67.4603 52.1601C68.2703 51.2401 68.8703 50.55 68.8703 50.55C69.8203 49.47 71.1503 48.8001 72.5903 48.6901C76.0903 48.4201 78.9403 51.46 78.4503 54.93C78.4503 54.93 78.4003 55.31 78.3203 55.89C78.2403 56.47 78.1303 57.24 78.0303 58.01C78.0403 58.81 77.9703 59.58 77.8203 60.3C77.6703 61.03 77.4403 61.7301 77.1503 62.4001C76.8503 62.8801 76.5303 63.3601 76.1803 63.8501C75.8403 64.3301 75.4703 64.82 75.0903 65.3C72.3203 70.09 67.3703 72.34 62.6703 74.73C61.9303 74.98 61.1903 75.1701 60.4303 75.3201C58.1603 75.7601 55.7903 75.7201 53.4303 75.0401C52.0803 74.5901 50.7303 74.1401 50.2803 72.7901C50.2803 72.1201 50.7303 71.6701 51.2303 71.2201C51.7303 70.7701 52.2903 70.3201 52.5103 69.6501C53.0503 69.1701 53.7403 68.67 54.6203 68.18V68.17Z" fill="#AEA290"/>
</g>
<defs>
<filter id="filter0_f_5528_206674" x="0" y="0" width="92.9805" height="92.98" filterUnits="userSpaceOnUse" color-interpolation-filters="sRGB">
<feFlood flood-opacity="0" result="BackgroundImageFix"/>
<feBlend mode="normal" in="SourceGraphic" in2="BackgroundImageFix" result="shape"/>
<feGaussianBlur stdDeviation="2.5" result="effect1_foregroundBlur_5528_206674"/>
</filter>
</defs>
</svg>
